<svg xmlns="http://www.w3.org/2000/svg" width="130.186" height="66.876" viewBox="0 0 130.186 66.876">
  <g id="PrimeRevenue_Logo_Alt_Black" data-name="PrimeRevenue Logo Alt Black" transform="translate(-242 -721)">
    <g id="Group_6759" data-name="Group 6759" transform="translate(242 773.306)">
      <path id="Path_26556" data-name="Path 26556" d="M20.143,2.245h5.126c3.108,0,5.246,1.594,5.246,4.319V6.6c0,2.967-2.562,4.5-5.509,4.5H21.191v5.268H20.143Zm4.924,7.891c2.623,0,4.4-1.372,4.4-3.471V6.623c0-2.238-1.736-3.41-4.278-3.41h-4v6.923Z" transform="translate(-20.143 -2.045)"/>
      <path id="Path_26557" data-name="Path 26557" d="M25.822,4.1h.99V7.022a4.864,4.864,0,0,1,4.561-3.086v1.09h-.1c-2.382,0-4.459,1.8-4.459,5.146v4.217h-.99Z" transform="translate(-13.47 -0.062)"/>
      <path id="Path_26558" data-name="Path 26558" d="M29.311,2.153h1.231V3.506H29.311Zm.12,4.035h.99V16.479h-.99Z" transform="translate(-9.371 -2.153)"/>
      <path id="Path_26559" data-name="Path 26559" d="M31.1,4.138h.99V5.974A3.791,3.791,0,0,1,35.52,3.9a3.694,3.694,0,0,1,3.471,2.218A4.088,4.088,0,0,1,42.7,3.9c2.442,0,3.956,1.716,3.956,4.3V14.43h-.99V8.316C45.671,6.1,44.52,4.8,42.624,4.8a3.317,3.317,0,0,0-3.249,3.632V14.43h-.987V8.256c0-2.14-1.172-3.452-3.008-3.452A3.472,3.472,0,0,0,32.091,8.5V14.43H31.1Z" transform="translate(-7.268 -0.104)"/>
      <path id="Path_26560" data-name="Path 26560" d="M39.183,9.306V9.265A5.073,5.073,0,0,1,44.066,3.9c2.886,0,4.724,2.342,4.724,5.39a2.379,2.379,0,0,1-.022.4H40.234a4.078,4.078,0,0,0,4.035,4.056A4.621,4.621,0,0,0,47.8,12.131l.687.6a5.412,5.412,0,0,1-4.259,1.938,5.114,5.114,0,0,1-5.046-5.368m8.537-.5c-.141-2.079-1.331-4-3.693-4a4.008,4.008,0,0,0-3.793,4Z" transform="translate(2.228 -0.104)"/>
      <path id="Path_26561" data-name="Path 26561" d="M44.8,2.245H50.73A5.554,5.554,0,0,1,54.7,3.637a3.715,3.715,0,0,1,1.07,2.623V6.3c0,2.36-1.755,3.713-4.137,4.037L56.3,16.371H54.967l-4.5-5.853H45.845v5.853H44.8ZM50.608,9.57c2.362,0,4.117-1.19,4.117-3.23V6.3c0-1.9-1.494-3.088-4.056-3.088H45.845V9.57Z" transform="translate(8.824 -2.045)"/>
      <path id="Path_26562" data-name="Path 26562" d="M50.382,9.306V9.265A5.073,5.073,0,0,1,55.265,3.9c2.886,0,4.724,2.342,4.724,5.39a2.379,2.379,0,0,1-.022.4H51.433a4.078,4.078,0,0,0,4.035,4.056A4.621,4.621,0,0,0,59,12.131l.687.6a5.412,5.412,0,0,1-4.259,1.938,5.114,5.114,0,0,1-5.046-5.368m8.537-.5c-.141-2.079-1.331-4-3.693-4a4.008,4.008,0,0,0-3.793,4Z" transform="translate(15.386 -0.104)"/>
      <path id="Path_26563" data-name="Path 26563" d="M55.18,4.008H56.33l3.9,9.183L64.16,4.008h1.109L60.647,14.38H59.8Z" transform="translate(21.023 0.027)"/>
      <path id="Path_26564" data-name="Path 26564" d="M60.134,9.306V9.265A5.073,5.073,0,0,1,65.017,3.9c2.886,0,4.724,2.342,4.724,5.39a2.379,2.379,0,0,1-.022.4H61.184a4.078,4.078,0,0,0,4.035,4.056,4.621,4.621,0,0,0,3.532-1.614l.687.6a5.412,5.412,0,0,1-4.259,1.938,5.114,5.114,0,0,1-5.046-5.368m8.537-.5c-.141-2.079-1.331-4-3.693-4a4.008,4.008,0,0,0-3.793,4Z" transform="translate(26.844 -0.104)"/>
      <path id="Path_26565" data-name="Path 26565" d="M65.46,4.138h.99V6.055A4.029,4.029,0,0,1,70.162,3.9a3.919,3.919,0,0,1,4.117,4.237v6.3h-.99V8.316C73.29,6.2,72.1,4.8,70.021,4.8A3.527,3.527,0,0,0,66.45,8.477V14.43h-.99Z" transform="translate(33.102 -0.104)"/>
      <path id="Path_26566" data-name="Path 26566" d="M70.591,10.3v-6.3h.99v6.114c0,2.121,1.19,3.513,3.269,3.513a3.527,3.527,0,0,0,3.571-3.673V4.008h.99V14.3h-.99V12.384a4.029,4.029,0,0,1-3.713,2.158A3.919,3.919,0,0,1,70.591,10.3" transform="translate(39.131 0.027)"/>
      <path id="Path_26567" data-name="Path 26567" d="M75.583,9.306V9.265A5.073,5.073,0,0,1,80.466,3.9c2.886,0,4.724,2.342,4.724,5.39a2.379,2.379,0,0,1-.022.4H76.634a4.078,4.078,0,0,0,4.035,4.056A4.621,4.621,0,0,0,84.2,12.131l.687.6a5.412,5.412,0,0,1-4.259,1.938,5.114,5.114,0,0,1-5.046-5.368m8.537-.5c-.141-2.079-1.331-4-3.693-4a4.008,4.008,0,0,0-3.793,4Z" transform="translate(44.996 -0.104)"/>
    </g>
    <g id="Group_6765" data-name="Group 6765" transform="translate(272 721)">
      <path id="Path_26391" data-name="Path 26391" d="M50.525,555.68H40.164v26.3h4.624v-8.456h5.22c5.787,0,10.516-3.077,10.516-8.976v-.075C60.525,559.175,56.69,555.68,50.525,555.68Zm5.3,8.978c0,2.751-2.172,4.689-5.672,4.689H44.788V559.89h5.368c3.46,0,5.672,1.609,5.672,4.689Z" transform="translate(-31.009 -546.334)"/>
      <path id="Path_26392" data-name="Path 26392" d="M106.9,566.252v-.072c0-2.821-2.025-4.359-5.439-4.359H94.737v8.828h6.757C104.808,570.649,106.9,568.915,106.9,566.252Z" transform="translate(-48.165 -548.265)"/>
      <path id="Path_26393" data-name="Path 26393" d="M26.811,587.049H97.065v-45H26.811Zm41.956-35.654H80.478a10.574,10.574,0,0,1,7.59,2.638,7.921,7.921,0,0,1,2.186,5.665v.072c0,4.323-2.6,6.915-6.244,7.97l7.1,9.953h-5.49l-6.452-9.166H73.383v9.166H68.767Zm-39.755-7.148H61.981v40.609H29.012Z" transform="translate(-26.811 -542.049)"/>
    </g>
  </g>
</svg>